<svg width="40" height="40" viewBox="0 0 40 40" fill="none" xmlns="http://www.w3.org/2000/svg">
<path d="M20.0866 15.285L22.4433 12.9283L29.5166 20L22.4449 27.0717L20.0883 24.7133L23.1333 21.6667L10.5716 21.6667L10.5716 18.3333L23.1333 18.3333L20.0866 15.285Z" fill="#71717a" fill-opacity="1"/>
<path fill-rule="evenodd" clip-rule="evenodd" d="M32.9633 7.03665C40.1233 14.1966 40.1233 25.8033 32.9633 32.9633C25.8033 40.1233 14.1966 40.1233 7.03658 32.9633C-0.123417 25.8033 -0.123417 14.1966 7.03658 7.03665C14.1966 -0.123356 25.8033 -0.123356 32.9633 7.03665ZM30.6066 9.39331C33.4196 12.2064 35 16.0217 35 20C35 23.9783 33.4196 27.7936 30.6066 30.6066C27.7935 33.4197 23.9782 35.0001 19.9999 35.0001C16.0216 35.0001 12.2063 33.4197 9.39325 30.6066C6.58019 27.7936 4.99982 23.9783 4.99982 20C4.99982 16.0217 6.58019 12.2064 9.39325 9.39331C12.2063 6.58025 16.0216 4.99989 19.9999 4.99989C23.9782 4.99989 27.7935 6.58025 30.6066 9.39331Z" fill="#71717a" fill-opacity="1"/>
</svg>
