<svg width="41" height="41" viewBox="0 0 41 41" fill="none" xmlns="http://www.w3.org/2000/svg">
<path d="M20.1933 15.3476L22.55 12.9909L29.6233 20.0626L22.5516 27.1343L20.195 24.7759L23.24 21.7293L10.6783 21.7293L10.6783 18.3959L23.24 18.3959L20.1933 15.3476Z" fill="url(#paint0_linear_36_1010)"/>
<path fill-rule="evenodd" clip-rule="evenodd" d="M33.0699 7.09933C40.2299 14.2593 40.2299 25.866 33.0699 33.026C25.9099 40.186 14.3033 40.186 7.14327 33.026C-0.0167274 25.866 -0.0167274 14.2593 7.14327 7.09933C14.3033 -0.0606728 25.9099 -0.0606728 33.0699 7.09933ZM30.7133 9.45599C33.5263 12.2691 35.1067 16.0844 35.1067 20.0627C35.1067 24.0409 33.5263 27.8563 30.7133 30.6693C27.9002 33.4824 24.0849 35.0628 20.1066 35.0628C16.1283 35.0628 12.313 33.4824 9.49994 30.6693C6.68688 27.8563 5.10651 24.0409 5.10651 20.0627C5.10651 16.0844 6.68688 12.2691 9.49994 9.45599C12.313 6.64293 16.1283 5.06257 20.1066 5.06257C24.0849 5.06257 27.9002 6.64293 30.7133 9.45599Z" fill="url(#paint1_linear_36_1010)"/>
<defs>
<linearGradient id="paint0_linear_36_1010" x1="29.7082" y1="20.1737" x2="-8.37195" y2="20.1737" gradientUnits="userSpaceOnUse">
<stop stop-color="#F5A93D"/>
<stop offset="1" stop-color="#01D6BC"/>
</linearGradient>
<linearGradient id="paint1_linear_36_1010" x1="38.6042" y1="20.3508" x2="-35.0971" y2="20.3508" gradientUnits="userSpaceOnUse">
<stop stop-color="#F5A93D"/>
<stop offset="1" stop-color="#01D6BC"/>
</linearGradient>
</defs>
</svg>
