<svg width="41" height="40" viewBox="0 0 41 40" fill="none" xmlns="http://www.w3.org/2000/svg">
<path d="M36.1789 32.9211L28.8281 25.5703C30.5979 23.2143 31.5532 20.3466 31.55 17.4C31.55 9.87344 25.4266 3.75 17.9 3.75C10.3734 3.75 4.25 9.87344 4.25 17.4C4.25 24.9266 10.3734 31.05 17.9 31.05C20.8466 31.0532 23.7143 30.0979 26.0703 28.3281L33.4211 35.6789C33.7932 36.0115 34.2785 36.1891 34.7774 36.1751C35.2763 36.1612 35.7509 35.9567 36.1038 35.6038C36.4567 35.2509 36.6612 34.7763 36.6751 34.2774C36.6891 33.7785 36.5115 33.2932 36.1789 32.9211ZM8.15 17.4C8.15 15.4716 8.72183 13.5866 9.79317 11.9832C10.8645 10.3798 12.3873 9.13013 14.1688 8.39217C15.9504 7.65422 17.9108 7.46114 19.8021 7.83734C21.6934 8.21355 23.4307 9.14215 24.7943 10.5057C26.1579 11.8693 27.0865 13.6066 27.4627 15.4979C27.8389 17.3892 27.6458 19.3496 26.9078 21.1312C26.1699 22.9127 24.9202 24.4355 23.3168 25.5068C21.7134 26.5782 19.8284 27.15 17.9 27.15C15.3151 27.1469 12.8369 26.1187 11.0091 24.2909C9.18133 22.4631 8.1531 19.9849 8.15 17.4Z" fill="#262626" fill-opacity="0.5"/>
</svg>
