<svg width="193" height="71" viewBox="0 0 193 71" fill="none" xmlns="http://www.w3.org/2000/svg">
<path d="M2.96208 62.1227V37.1413H14.3108C17.023 37.1413 19.4141 37.6647 21.484 38.7115C23.5539 39.7346 25.1717 41.174 26.3375 43.0297C27.5033 44.8855 28.0862 47.0862 28.0862 49.632C28.0862 52.1539 27.5033 54.3547 26.3375 56.2342C25.1717 58.09 23.5539 59.5413 21.484 60.5881C19.4141 61.6112 17.023 62.1227 14.3108 62.1227H2.96208ZM8.74349 57.3762H14.0253C15.6907 57.3762 17.1301 57.0669 18.3435 56.4483C19.5807 55.806 20.5323 54.9019 21.1985 53.7361C21.8885 52.5703 22.2335 51.2022 22.2335 49.632C22.2335 48.0379 21.8885 46.6699 21.1985 45.5279C20.5323 44.3621 19.5807 43.4699 18.3435 42.8513C17.1301 42.2089 15.6907 41.8877 14.0253 41.8877H8.74349V57.3762ZM37.7638 47.2052H49.7905V51.7019H37.7638V47.2052ZM38.192 57.4833H51.789V62.1227H32.4463V37.1413H51.3251V41.7807H38.192V57.4833ZM63.535 62.1227L52.7573 37.1413H59.0027L68.4243 59.2677H64.7484L74.3127 37.1413H80.0585L69.2451 62.1227H63.535Z" fill="#F5A93D"/>
<path d="M110.668 62.1227L102.495 37.1413H108.491L115.592 59.2677H112.595L120.018 37.1413H125.371L132.508 59.2677H129.618L136.898 37.1413H142.43L134.257 62.1227H128.048L121.731 42.7086H123.372L116.877 62.1227H110.668ZM141.537 62.1227L152.672 37.1413H158.382L169.552 62.1227H163.485L154.349 40.0677H156.633L147.462 62.1227H141.537ZM147.105 56.7695L148.639 52.3799H161.487L163.057 56.7695H147.105ZM176.82 62.1227V51.916L178.141 55.4134L167.149 37.1413H173.287L181.71 51.1665H178.177L186.634 37.1413H192.309L181.317 55.4134L182.602 51.916V62.1227H176.82Z" fill="#F5A93D"/>
<path d="M119.463 29.2422L102.128 11.7216L102.073 21.9694C70.2944 21.8005 71.1893 46.4139 71.1348 56.6618C78.4145 36.1948 87.646 36.2439 101.997 36.3202L101.942 46.568L119.463 29.2422Z" fill="url(#paint0_linear_12_774)"/>
<defs>
<linearGradient id="paint0_linear_12_774" x1="71.037" y1="33.7544" x2="167.89" y2="34.2692" gradientUnits="userSpaceOnUse">
<stop stop-color="#F5A93D"/>
<stop offset="1" stop-color="#01D6BC"/>
</linearGradient>
</defs>
</svg>
