<svg width="386" height="227" viewBox="0 0 386 227" fill="none" xmlns="http://www.w3.org/2000/svg">
<g clip-path="url(#clip0_12_1271)">
<path d="M318.336 25.0186C317.899 25.271 317.439 25.9656 317.385 27.4836C317.37 27.8274 317.219 28.1513 316.966 28.3848C316.714 28.6182 316.379 28.7424 316.035 28.7302C315.691 28.7181 315.366 28.5706 315.13 28.3198C314.894 28.0691 314.767 27.7354 314.776 27.3913C314.842 25.5321 315.43 23.6816 317.03 22.7573C318.635 21.8312 320.538 22.2525 322.185 23.1298C322.49 23.2928 322.719 23.5705 322.819 23.9019C322.92 24.2332 322.885 24.5911 322.722 24.8967C322.559 25.2024 322.282 25.4307 321.95 25.5316C321.619 25.6325 321.261 25.5976 320.956 25.4346C319.61 24.7157 318.774 24.7679 318.336 25.0186ZM325.335 27.2799C325.468 27.1706 325.62 27.0884 325.784 27.038C325.948 26.9876 326.12 26.97 326.291 26.9862C326.461 27.0023 326.627 27.052 326.779 27.1322C326.93 27.2125 327.064 27.3218 327.174 27.454C328.194 28.6912 329.108 30.0119 329.907 31.4021C331.717 34.539 332.833 37.7525 333.134 40.4473C333.284 41.7929 333.239 43.0741 332.925 44.1726C332.607 45.278 331.99 46.2789 330.956 46.876C329.705 47.5985 328.258 47.4975 326.937 47.0153C325.61 46.5314 324.244 45.6174 322.942 44.4285C322.69 44.1941 322.541 43.8698 322.527 43.526C322.513 43.1822 322.635 42.8468 322.867 42.5927C323.099 42.3385 323.422 42.1862 323.765 42.1687C324.109 42.1513 324.445 42.2703 324.702 42.4997C325.851 43.5476 326.928 44.2335 327.83 44.5608C328.739 44.8915 329.31 44.8132 329.651 44.6147C329.936 44.4494 330.225 44.1134 330.413 43.4536C330.605 42.7852 330.666 41.8695 330.539 40.738C330.286 38.4767 329.32 35.6079 327.644 32.7077C326.918 31.4458 326.088 30.2469 325.163 29.1234C325.054 28.9913 324.972 28.8389 324.921 28.675C324.871 28.5111 324.853 28.3389 324.869 28.1682C324.886 27.9975 324.935 27.8316 325.015 27.6801C325.096 27.5286 325.205 27.3944 325.337 27.2851" fill="#262626"/>
<path d="M335.134 35.1747C335.134 34.6699 334.762 33.9231 333.475 33.1206C333.33 33.0297 333.203 32.9111 333.104 32.7714C333.004 32.6318 332.933 32.4739 332.894 32.3068C332.856 32.1396 332.85 31.9665 332.879 31.7973C332.907 31.6281 332.968 31.4661 333.059 31.3206C333.243 31.0267 333.535 30.8178 333.873 30.7398C334.04 30.7012 334.213 30.6958 334.382 30.7241C334.552 30.7524 334.714 30.8137 334.859 30.9046C336.436 31.8916 337.745 33.326 337.745 35.1747C337.745 37.0269 336.429 38.4648 334.845 39.4519C334.551 39.6281 334.2 39.6819 333.867 39.6016C333.534 39.5213 333.246 39.3134 333.065 39.0227C332.884 38.732 332.824 38.3817 332.899 38.0475C332.974 37.7132 333.177 37.4217 333.465 37.2358C334.76 36.4281 335.134 35.6796 335.134 35.1747ZM329.673 40.1047C329.702 40.2737 329.697 40.4468 329.659 40.6139C329.621 40.7811 329.55 40.9391 329.451 41.079C329.351 41.2188 329.226 41.3377 329.08 41.4289C328.935 41.5201 328.773 41.5818 328.604 41.6105C327.023 41.8733 325.422 42.0037 323.819 42.0004C320.198 42.0004 316.856 41.3615 314.372 40.2735C313.13 39.7321 312.046 39.0515 311.252 38.2298C310.45 37.4047 309.893 36.3672 309.893 35.1747C309.893 33.7299 310.704 32.5287 311.781 31.6235C312.864 30.7165 314.34 29.9906 316.02 29.458C316.35 29.3531 316.709 29.3838 317.016 29.5431C317.168 29.622 317.304 29.7301 317.414 29.8612C317.525 29.9924 317.608 30.144 317.66 30.3075C317.712 30.4709 317.731 30.643 317.716 30.8139C317.702 30.9847 317.654 31.151 317.575 31.3033C317.496 31.4556 317.388 31.5908 317.257 31.7013C317.126 31.8118 316.974 31.8954 316.811 31.9473C315.331 32.4173 314.196 33.0074 313.461 33.6254C312.72 34.2451 312.504 34.7796 312.504 35.1747C312.504 35.5055 312.652 35.9233 313.129 36.4159C313.613 36.9155 314.375 37.4256 315.418 37.8817C317.502 38.7938 320.47 39.3892 323.819 39.3892C325.36 39.3892 326.825 39.2639 328.167 39.0358C328.337 39.0071 328.51 39.012 328.677 39.0502C328.844 39.0884 329.002 39.1591 329.142 39.2583C329.282 39.3576 329.4 39.4834 329.492 39.6286C329.583 39.7739 329.645 39.9356 329.673 40.1047Z" fill="#262626"/>
<path d="M318.374 44.6166C318.809 44.869 319.643 44.9195 320.983 44.2075C321.135 44.1271 321.3 44.0772 321.471 44.0608C321.642 44.0445 321.814 44.0619 321.978 44.112C322.142 44.1622 322.295 44.2442 322.427 44.3534C322.559 44.4625 322.669 44.5966 322.749 44.7481C322.83 44.8995 322.88 45.0653 322.896 45.236C322.912 45.4068 322.895 45.579 322.845 45.743C322.795 45.907 322.713 46.0595 322.603 46.1918C322.494 46.3241 322.36 46.4336 322.209 46.5141C320.565 47.3862 318.668 47.8023 317.068 46.8797C315.463 45.9518 314.875 44.0944 314.814 42.2283C314.807 41.8854 314.936 41.5539 315.172 41.3052C315.409 41.0565 315.733 40.9107 316.076 40.8993C316.418 40.8879 316.752 41.0117 317.004 41.2441C317.256 41.4765 317.407 41.7987 317.423 42.1412C317.476 43.6644 317.935 44.3642 318.374 44.6166ZM316.835 37.4219C316.51 37.3014 316.247 37.0569 316.103 36.7422C315.958 36.4275 315.945 36.0684 316.065 35.7438C316.591 34.325 317.279 32.8593 318.12 31.404C319.93 28.2671 322.155 25.6942 324.338 24.0857C325.427 23.2832 326.559 22.6826 327.668 22.4058C328.784 22.1273 329.961 22.1603 330.993 22.7574C332.246 23.4799 332.88 24.782 333.124 26.1694C333.369 27.5603 333.259 29.2001 332.88 30.9218C332.849 31.095 332.784 31.2602 332.688 31.4075C332.591 31.5547 332.467 31.6811 332.32 31.7789C332.174 31.8767 332.01 31.944 331.837 31.9767C331.664 32.0094 331.486 32.0068 331.315 31.9691C331.143 31.9315 330.98 31.8595 330.837 31.7575C330.694 31.6555 330.573 31.5256 330.481 31.3756C330.389 31.2255 330.328 31.0585 330.303 30.8845C330.277 30.7105 330.287 30.5331 330.331 30.363C330.664 28.845 330.719 27.5673 330.552 26.6203C330.385 25.6698 330.03 25.2154 329.689 25.0187C329.403 24.8534 328.967 24.7715 328.302 24.9387C327.626 25.1075 326.804 25.5131 325.887 26.1885C324.056 27.5359 322.054 29.8094 320.381 32.7096C319.649 33.9692 319.024 35.2881 318.513 36.6525C318.392 36.977 318.148 37.2404 317.833 37.3847C317.519 37.529 317.159 37.5424 316.835 37.4219Z" fill="#262626"/>
<path d="M326.361 34.931C326.361 35.5589 326.111 36.161 325.667 36.605C325.223 37.049 324.621 37.2984 323.993 37.2984C323.365 37.2984 322.763 37.049 322.319 36.605C321.875 36.161 321.626 35.5589 321.626 34.931C321.626 34.3031 321.875 33.7009 322.319 33.2569C322.763 32.8129 323.365 32.5635 323.993 32.5635C324.621 32.5635 325.223 32.8129 325.667 33.2569C326.111 33.7009 326.361 34.3031 326.361 34.931Z" fill="#262626"/>
</g>
<path d="M78.7148 222.938C78.8687 222.938 79.0162 222.877 79.1251 222.768C79.2339 222.66 79.295 222.512 79.295 222.358V210.753H74.0726C73.457 210.753 72.8667 210.508 72.4314 210.073C71.9961 209.638 71.7516 209.047 71.7516 208.432V203.209H64.7884C64.6345 203.209 64.4869 203.27 64.3781 203.379C64.2692 203.488 64.2081 203.636 64.2081 203.79V216.123C63.6896 215.76 63.0933 215.525 62.4673 215.436V203.79C62.4673 203.174 62.7119 202.584 63.1471 202.148C63.5824 201.713 64.1728 201.469 64.7884 201.469H71.9512C71.9837 201.469 72.015 201.473 72.0463 201.477C72.069 201.48 72.0919 201.483 72.1148 201.485C72.3643 201.502 72.6104 201.55 72.839 201.645C72.9051 201.673 72.969 201.71 73.0316 201.746L73.0897 201.78L73.1442 201.807C73.1767 201.822 73.2081 201.839 73.2382 201.858C73.3287 201.92 73.41 201.993 73.4924 202.067C73.5059 202.079 73.5198 202.091 73.5341 202.102C73.5541 202.116 73.5731 202.132 73.591 202.149L80.3557 208.912C80.7911 209.347 81.0357 209.938 81.0358 210.553V222.358C81.0358 222.974 80.7913 223.564 80.356 223.999C79.9207 224.435 79.3303 224.679 78.7148 224.679H76.7001C77.1328 224.189 77.4156 223.585 77.5148 222.938H78.7148ZM77.9929 209.012L73.4924 204.51V208.432C73.4924 208.586 73.5535 208.733 73.6623 208.842C73.7711 208.951 73.9187 209.012 74.0726 209.012H77.9929ZM71.8119 222.938C72.0475 223.936 72.9446 224.679 74.0146 224.679H74.1307C74.4278 224.679 74.7221 224.621 74.9967 224.507C75.2712 224.393 75.5207 224.226 75.7309 224.016C75.941 223.806 76.1077 223.557 76.2214 223.282C76.3352 223.008 76.3937 222.713 76.3937 222.416V222.145C76.3935 221.794 76.3026 221.449 76.1297 221.144C75.9569 220.839 75.7079 220.584 75.4072 220.404L73.6328 219.338C73.59 219.313 73.5545 219.276 73.5299 219.233C73.5053 219.189 73.4924 219.14 73.4924 219.09V218.818C73.4924 218.68 73.5474 218.547 73.6453 218.449C73.7433 218.351 73.8761 218.296 74.0146 218.296H74.1307C74.2692 218.296 74.402 218.351 74.4999 218.449C74.5979 218.547 74.6529 218.68 74.6529 218.818V218.876C74.6529 219.107 74.7446 219.329 74.9078 219.492C75.0711 219.655 75.2924 219.747 75.5233 219.747C75.7541 219.747 75.9755 219.655 76.1388 219.492C76.302 219.329 76.3937 219.107 76.3937 218.876V218.818C76.3937 218.218 76.1553 217.643 75.7309 217.218C75.3065 216.794 74.7309 216.555 74.1307 216.555H74.0146C73.4144 216.555 72.8388 216.794 72.4144 217.218C71.99 217.643 71.7516 218.218 71.7516 218.818V219.09C71.7516 219.803 72.1253 220.464 72.738 220.831L74.5125 221.896C74.5553 221.922 74.5907 221.958 74.6153 222.002C74.6399 222.045 74.6529 222.095 74.6529 222.145V222.416C74.6529 222.555 74.5979 222.687 74.4999 222.785C74.402 222.883 74.2692 222.938 74.1307 222.938H74.0146C73.8761 222.938 73.7433 222.883 73.6453 222.785C73.5474 222.687 73.4924 222.555 73.4924 222.416V222.358C73.4924 222.127 73.4007 221.906 73.2374 221.743C73.0742 221.579 72.8528 221.488 72.622 221.488C72.3911 221.488 72.1697 221.579 72.0065 221.743C71.8433 221.906 71.7516 222.127 71.7516 222.358V222.416C71.7516 222.596 71.7725 222.77 71.8119 222.938ZM64.7303 224.679L64.7884 224.621V224.679H64.7303ZM66.2356 223.519C66.047 223.182 65.9483 222.802 65.9489 222.416V222.358C65.9489 222.127 66.0406 221.906 66.2038 221.743C66.3671 221.579 66.5885 221.488 66.8193 221.488C67.0502 221.488 67.2715 221.579 67.4348 221.743C67.598 221.906 67.6897 222.127 67.6897 222.358V222.416C67.6897 222.704 67.923 222.938 68.2119 222.938H68.328C68.4665 222.938 68.5993 222.883 68.6973 222.785C68.7952 222.687 68.8502 222.555 68.8502 222.416V222.145C68.8502 222.095 68.8373 222.045 68.8127 222.002C68.7881 221.958 68.7526 221.922 68.7098 221.896L66.9342 220.831C66.6337 220.65 66.385 220.395 66.2124 220.09C66.0397 219.785 65.949 219.441 65.9489 219.09V218.818C65.9489 218.521 66.0074 218.227 66.1212 217.952C66.2349 217.678 66.4016 217.428 66.6117 217.218C66.8219 217.008 67.0714 216.841 67.3459 216.728C67.6205 216.614 67.9148 216.555 68.2119 216.555H68.328C68.9282 216.555 69.5038 216.794 69.9282 217.218C70.3526 217.643 70.591 218.218 70.591 218.818V218.876C70.591 219.107 70.4993 219.329 70.3361 219.492C70.1729 219.655 69.9515 219.747 69.7206 219.747C69.4898 219.747 69.2684 219.655 69.1052 219.492C68.9419 219.329 68.8502 219.107 68.8502 218.876V218.818C68.8502 218.68 68.7952 218.547 68.6973 218.449C68.5993 218.351 68.4665 218.296 68.328 218.296H68.2119C68.0734 218.296 67.9406 218.351 67.8427 218.449C67.7447 218.547 67.6897 218.68 67.6897 218.818V219.09C67.6897 219.14 67.7027 219.189 67.7273 219.233C67.7519 219.276 67.7873 219.313 67.8301 219.338L69.6057 220.404C70.2173 220.77 70.591 221.432 70.591 222.145V222.416C70.5907 222.802 70.492 223.181 70.3044 223.519C70.1081 223.87 69.8214 224.164 69.474 224.368C69.1265 224.572 68.7309 224.679 68.328 224.679H68.2119C67.809 224.679 67.4134 224.572 67.066 224.368C66.7185 224.164 66.4319 223.87 66.2356 223.519ZM64.5656 222.894C64.7095 222.551 64.7884 222.174 64.7884 221.778C64.7884 221.547 64.6967 221.326 64.5334 221.162C64.3702 220.999 64.1488 220.907 63.918 220.907C63.6871 220.907 63.4657 220.999 63.3025 221.162C63.1393 221.326 63.0476 221.547 63.0476 221.778C63.0476 222.086 62.9253 222.381 62.7077 222.598C62.49 222.816 62.1948 222.938 61.887 222.938C61.5793 222.938 61.2841 222.816 61.0664 222.598C60.8488 222.381 60.7265 222.086 60.7265 221.778V219.457C60.7265 219.149 60.8488 218.854 61.0664 218.636C61.2841 218.418 61.5793 218.296 61.887 218.296C62.1948 218.296 62.49 218.418 62.7077 218.636C62.9253 218.854 63.0476 219.149 63.0476 219.457C63.0476 219.688 63.1393 219.909 63.3025 220.072C63.4657 220.235 63.6871 220.327 63.918 220.327C64.1488 220.327 64.3702 220.235 64.5334 220.072C64.6967 219.909 64.7884 219.688 64.7884 219.457C64.7884 218.687 64.4827 217.949 63.9386 217.405C63.3945 216.861 62.6565 216.555 61.887 216.555C61.1176 216.555 60.3796 216.861 59.8355 217.405C59.2914 217.949 58.9857 218.687 58.9857 219.457V221.778C58.9854 222.449 59.2176 223.099 59.6428 223.618C60.068 224.137 60.6599 224.493 61.3178 224.624C61.9757 224.756 62.6589 224.655 63.251 224.34C63.8432 224.025 64.3077 223.514 64.5656 222.894Z" fill="#262626"/>
<g clip-path="url(#clip1_12_1271)">
<path d="M21.6166 97.5891C16.0913 97.5891 12.6393 100.352 11.2589 105.875C13.3304 103.113 15.7466 102.077 18.5093 102.768C20.0847 103.161 21.211 104.305 22.4574 105.571C24.4907 107.634 26.839 110.018 31.9744 110.018C37.4979 110.018 40.9499 107.256 42.3321 101.732C40.2606 104.495 37.8426 105.531 35.0817 104.84C33.5045 104.446 32.38 103.302 31.1301 102.037C29.102 99.974 26.752 97.5891 21.6166 97.5891ZM11.2589 110.018C5.73358 110.018 2.28158 112.781 0.901123 118.305C2.97267 115.542 5.3889 114.506 8.15154 115.197C9.72697 115.591 10.8533 116.734 12.1014 118C14.1312 120.063 16.4813 122.448 21.6166 122.448C27.1402 122.448 30.5922 119.685 31.9744 114.162C29.9028 116.924 27.4848 117.96 24.7239 117.269C23.1468 116.875 22.0222 115.732 20.7723 114.466C18.7443 112.403 16.3942 110.018 11.2589 110.018Z" fill="#262626"/>
</g>
<path d="M374.741 101.169H346.706C346.424 101.169 346.144 101.228 345.886 101.343C345.627 101.457 345.395 101.624 345.205 101.833C345.015 102.042 344.87 102.288 344.78 102.557C344.691 102.825 344.658 103.109 344.685 103.39L347.414 132.499C347.447 132.854 347.573 133.193 347.778 133.483C347.984 133.774 348.262 134.005 348.585 134.155L359.873 139.364C360.14 139.487 360.43 139.551 360.724 139.551C361.018 139.551 361.308 139.487 361.575 139.364L372.863 134.155C373.186 134.006 373.464 133.774 373.67 133.484C373.876 133.193 374.002 132.854 374.035 132.499L376.763 103.39C376.79 103.109 376.757 102.825 376.667 102.557C376.578 102.288 376.433 102.042 376.243 101.833C376.053 101.624 375.821 101.457 375.562 101.343C375.304 101.228 375.024 101.169 374.741 101.169Z" stroke="#262626" stroke-width="5.57055"/>
<path d="M368.848 108.278H352.6L353.616 117.417H367.832L366.817 128.587L360.724 131.633L354.631 128.587L354.123 123.51" stroke="#262626" stroke-width="5.57055" stroke-linecap="round" stroke-linejoin="round"/>
<path d="M289.003 204.718V200.54H284.825V204.718H282.736V194.273H284.825V198.451H289.003V194.273H291.092V204.718H289.003ZM295.27 204.718V196.362H292.345V194.273H300.075V196.362H297.359V204.718H295.27ZM301.537 204.718V194.273H303.626L306.55 201.375H306.759L309.893 194.273H311.982V204.718H309.893V198.242H309.684L307.386 203.464H306.133L303.835 198.242H303.626V204.718H301.537ZM320.337 204.718H314.071V194.273H316.16V202.629H320.337V204.718ZM300.283 180.068L295.479 184.873L300.283 189.677L299.03 192.184L291.719 184.873L299.03 177.561L300.283 180.068ZM302.79 189.677L307.595 184.873L302.79 180.068L304.044 177.561L311.355 184.873L304.044 192.184L302.79 189.677Z" fill="#262626"/>
<g clip-path="url(#clip2_12_1271)">
<path d="M53.6315 26.1123L49.5913 28.4725L47.187 26.0682L49.3713 21.9873C48.9474 21.2426 48.6147 20.4495 48.3804 19.6252L43.9479 18.4211V15.015L48.3567 13.72C48.5831 12.8981 48.9068 12.0992 49.3291 11.3435L47.0868 7.33454L49.4912 4.93027L53.5323 7.20024C54.3031 6.77592 55.0937 6.45789 55.8912 6.23852L57.1383 1.69116H60.5444L61.8275 6.33392C62.5762 6.56337 63.2984 6.87202 63.9817 7.25464L68.2249 4.83011L70.6291 7.23445L68.2168 11.518C68.8358 12.6556 69.2572 13.9294 69.423 15.3069H65.1677C64.3112 11.0652 59.4131 8.65646 55.4417 10.946C51.0739 13.4641 51.0739 19.7936 55.4417 22.3117C57.2096 23.3309 58.413 23.4953 59.9723 22.8289V26.0915L56.9201 27.9126C56.9201 27.9126 54.4326 26.543 53.6314 26.1124M62.6914 29.5813C61.5971 29.9512 60.7502 29.7292 59.8698 28.1412L57.3704 29.6724C58.3834 32.2058 61.9768 33.3039 64.6039 31.8503C66.3672 30.6833 66.638 29.4839 66.5995 25.7552V17.2831H63.513V26.9955C63.548 28.1461 63.5008 29.3076 62.6914 29.5812M76.7648 31.7259C78.236 30.8967 79.0829 29.2906 78.6508 27.2233C77.9548 23.3272 72.6978 23.3272 72.0745 21.735C71.3899 19.4364 74.5542 19.073 75.432 21.1196L77.8379 19.5757C76.116 16.2659 71.4344 16.5935 69.8711 18.6064C68.3158 20.3718 68.759 23.4615 70.6525 24.7332C72.5177 26.1332 75.2576 26.4514 75.6073 27.761C75.9476 29.3636 74.429 29.8813 72.9198 29.6976C71.8077 29.4665 71.1891 28.9015 70.5201 27.8734L68.0239 29.3132C69.7072 32.673 74.2305 33.1542 76.7648 31.7258" fill="#262626"/>
</g>
<path d="M98.908 43.52C98.908 38.9032 100.742 34.4754 104.007 31.2107C107.271 27.9461 111.699 26.1121 116.316 26.1121H255.58C260.197 26.1121 264.624 27.9461 267.889 31.2107C271.154 34.4754 272.988 38.9032 272.988 43.52V139.264C272.988 143.881 271.154 148.309 267.889 151.573C264.624 154.838 260.197 156.672 255.58 156.672H194.652V174.08H220.764C223.072 174.08 225.286 174.997 226.918 176.629C228.551 178.261 229.468 180.475 229.468 182.784C229.468 185.092 228.551 187.306 226.918 188.938C225.286 190.571 223.072 191.488 220.764 191.488H151.132C148.823 191.488 146.61 190.571 144.977 188.938C143.345 187.306 142.428 185.092 142.428 182.784C142.428 180.475 143.345 178.261 144.977 176.629C146.61 174.997 148.823 174.08 151.132 174.08H177.244V156.672H116.316C111.699 156.672 107.271 154.838 104.007 151.573C100.742 148.309 98.908 143.881 98.908 139.264V43.52ZM255.58 139.264V43.52H116.316V139.264H255.58Z" fill="#262626"/>
<path fill-rule="evenodd" clip-rule="evenodd" d="M196.676 62.0699C196.87 61.4895 196.946 60.876 196.898 60.2659C196.85 59.6558 196.681 59.0615 196.399 58.5183C196.117 57.975 195.729 57.4939 195.258 57.1034C194.787 56.7129 194.242 56.421 193.656 56.2451C193.07 56.0692 192.454 56.0128 191.846 56.0793C191.238 56.1458 190.649 56.3337 190.115 56.6321C189.58 56.9304 189.111 57.333 188.736 57.8161C188.36 58.2991 188.085 58.8526 187.927 59.4439L169.649 120.372C169.351 121.517 169.509 122.733 170.089 123.763C170.67 124.794 171.627 125.56 172.76 125.899C173.894 126.239 175.115 126.125 176.166 125.583C177.217 125.041 178.018 124.112 178.398 122.992L196.676 62.0638V62.0699ZM162.021 72.7567C162.876 73.6135 163.357 74.7749 163.357 75.9858C163.357 77.1968 162.876 78.3582 162.021 79.215L150.018 91.2178L162.021 103.221C162.828 104.087 163.267 105.233 163.246 106.416C163.225 107.6 162.746 108.73 161.909 109.567C161.071 110.404 159.942 110.884 158.758 110.905C157.574 110.926 156.429 110.486 155.562 109.679L140.33 94.447C139.475 93.5902 138.994 92.4288 138.994 91.2178C138.994 90.0069 139.475 88.8454 140.33 87.9886L155.562 72.7567C156.419 71.9009 157.581 71.4203 158.791 71.4203C160.002 71.4203 161.164 71.9009 162.021 72.7567ZM204.305 109.679C203.449 108.822 202.968 107.661 202.968 106.45C202.968 105.239 203.449 104.077 204.305 103.221L216.307 91.2178L204.305 79.215C203.497 78.3488 203.058 77.2031 203.079 76.0192C203.1 74.8354 203.579 73.7059 204.417 72.8686C205.254 72.0314 206.383 71.5518 207.567 71.5309C208.751 71.5101 209.897 71.9495 210.763 72.7567L225.995 87.9886C226.851 88.8454 227.331 90.0069 227.331 91.2178C227.331 92.4288 226.851 93.5902 225.995 94.447L210.763 109.679C209.906 110.535 208.745 111.015 207.534 111.015C206.323 111.015 205.161 110.535 204.305 109.679Z" fill="#262626"/>
<defs>
<clipPath id="clip0_12_1271">
<rect width="27.8528" height="27.8528" fill="white" transform="translate(309.893 20.8896)"/>
</clipPath>
<clipPath id="clip1_12_1271">
<rect width="41.7791" height="41.7791" fill="white" transform="translate(0.727051 89.1289)"/>
</clipPath>
<clipPath id="clip2_12_1271">
<rect width="34.816" height="34.816" fill="white" transform="translate(43.8988)"/>
</clipPath>
</defs>
</svg>
