<svg width="276" height="163" viewBox="0 0 276 163" fill="none" xmlns="http://www.w3.org/2000/svg">
<g clip-path="url(#clip0_12_640)">
<path d="M228.063 17.965C227.749 18.1462 227.419 18.645 227.38 19.735C227.369 19.9819 227.261 20.2144 227.079 20.3821C226.898 20.5497 226.657 20.6389 226.41 20.6301C226.163 20.6214 225.93 20.5155 225.761 20.3355C225.591 20.1554 225.5 19.9158 225.506 19.6687C225.554 18.3337 225.976 17.005 227.125 16.3412C228.278 15.6762 229.644 15.9787 230.826 16.6087C231.046 16.7257 231.21 16.9252 231.282 17.1631C231.355 17.401 231.33 17.658 231.213 17.8775C231.096 18.0969 230.896 18.2609 230.658 18.3334C230.42 18.4058 230.163 18.3807 229.944 18.2637C228.978 17.7475 228.378 17.785 228.063 17.965ZM233.089 19.5887C233.184 19.5102 233.293 19.4512 233.411 19.415C233.528 19.3789 233.652 19.3662 233.775 19.3778C233.897 19.3894 234.016 19.4251 234.125 19.4827C234.234 19.5403 234.33 19.6188 234.409 19.7137C235.141 20.6021 235.798 21.5505 236.371 22.5487C237.671 24.8012 238.473 27.1087 238.689 29.0437C238.796 30.01 238.764 30.93 238.539 31.7187C238.31 32.5125 237.868 33.2312 237.125 33.66C236.226 34.1787 235.188 34.1062 234.239 33.76C233.286 33.4125 232.305 32.7562 231.37 31.9025C231.189 31.7342 231.082 31.5013 231.072 31.2544C231.062 31.0076 231.15 30.7667 231.316 30.5842C231.483 30.4017 231.715 30.2924 231.961 30.2798C232.208 30.2673 232.45 30.3527 232.634 30.5175C233.459 31.27 234.233 31.7625 234.88 31.9975C235.533 32.235 235.943 32.1787 236.188 32.0362C236.393 31.9175 236.6 31.6762 236.735 31.2025C236.873 30.7225 236.916 30.065 236.825 29.2525C236.644 27.6287 235.95 25.5687 234.746 23.4862C234.225 22.5801 233.63 21.7192 232.965 20.9125C232.887 20.8176 232.828 20.7082 232.791 20.5905C232.755 20.4728 232.743 20.3492 232.754 20.2266C232.766 20.104 232.801 19.9849 232.859 19.8761C232.917 19.7673 232.995 19.6709 233.09 19.5925" fill="url(#paint0_linear_12_640)"/>
<path d="M240.125 25.2575C240.125 24.895 239.858 24.3587 238.934 23.7825C238.829 23.7172 238.739 23.632 238.667 23.5318C238.596 23.4315 238.544 23.3181 238.517 23.1981C238.489 23.0781 238.485 22.9538 238.505 22.8323C238.526 22.7108 238.57 22.5945 238.635 22.49C238.767 22.279 238.977 22.1289 239.219 22.0729C239.339 22.0452 239.464 22.0414 239.585 22.0617C239.707 22.082 239.823 22.126 239.927 22.1912C241.06 22.9 242 23.93 242 25.2575C242 26.5875 241.055 27.62 239.917 28.3287C239.707 28.4553 239.454 28.4939 239.215 28.4362C238.976 28.3786 238.769 28.2293 238.639 28.0206C238.509 27.8118 238.467 27.5603 238.52 27.3203C238.574 27.0803 238.72 26.871 238.926 26.7375C239.856 26.1575 240.125 25.62 240.125 25.2575ZM236.204 28.7975C236.224 28.9189 236.221 29.0431 236.193 29.1632C236.166 29.2832 236.115 29.3967 236.044 29.4971C235.973 29.5975 235.882 29.6829 235.778 29.7484C235.674 29.8138 235.558 29.8581 235.436 29.8787C234.301 30.0675 233.151 30.1611 232 30.1587C229.4 30.1587 227 29.7 225.216 28.9187C224.325 28.53 223.546 28.0412 222.976 27.4512C222.4 26.8587 222 26.1137 222 25.2575C222 24.22 222.583 23.3575 223.356 22.7075C224.134 22.0562 225.194 21.535 226.4 21.1525C226.637 21.0772 226.894 21.0992 227.115 21.2136C227.224 21.2703 227.322 21.3479 227.401 21.4421C227.48 21.5362 227.54 21.6451 227.577 21.7625C227.615 21.8799 227.629 22.0034 227.618 22.1261C227.608 22.2488 227.573 22.3682 227.516 22.4776C227.46 22.5869 227.382 22.684 227.288 22.7634C227.194 22.8427 227.085 22.9027 226.967 22.94C225.905 23.2775 225.09 23.7012 224.562 24.145C224.03 24.59 223.875 24.9737 223.875 25.2575C223.875 25.495 223.981 25.795 224.324 26.1487C224.671 26.5075 225.219 26.8737 225.967 27.2012C227.464 27.8562 229.595 28.2837 232 28.2837C233.106 28.2837 234.159 28.1937 235.123 28.03C235.244 28.0094 235.368 28.0129 235.488 28.0403C235.608 28.0677 235.722 28.1185 235.822 28.1898C235.923 28.261 236.008 28.3514 236.073 28.4557C236.139 28.5599 236.183 28.6761 236.204 28.7975Z" fill="url(#paint1_linear_12_640)"/>
<path d="M228.09 32.0375C228.402 32.2188 229.001 32.255 229.964 31.7438C230.072 31.686 230.192 31.6502 230.314 31.6384C230.437 31.6266 230.56 31.6391 230.678 31.6752C230.796 31.7112 230.905 31.7701 231 31.8485C231.095 31.9268 231.174 32.0231 231.232 32.1319C231.29 32.2406 231.325 32.3597 231.337 32.4823C231.349 32.6049 231.336 32.7286 231.3 32.8463C231.264 32.9641 231.206 33.0736 231.127 33.1686C231.049 33.2636 230.952 33.3422 230.844 33.4C229.664 34.0263 228.301 34.325 227.152 33.6625C226 32.9963 225.577 31.6625 225.534 30.3225C225.529 30.0763 225.622 29.8382 225.791 29.6597C225.961 29.4811 226.194 29.3764 226.44 29.3682C226.686 29.36 226.925 29.449 227.106 29.6158C227.287 29.7827 227.396 30.0141 227.407 30.26C227.445 31.3538 227.775 31.8563 228.09 32.0375ZM226.985 26.8713C226.752 26.7847 226.563 26.6091 226.459 26.3832C226.356 26.1572 226.346 25.8993 226.432 25.6663C226.81 24.6475 227.304 23.595 227.907 22.55C229.207 20.2975 230.805 18.45 232.372 17.295C233.155 16.7188 233.967 16.2875 234.764 16.0888C235.565 15.8888 236.41 15.9125 237.151 16.3413C238.051 16.86 238.506 17.795 238.681 18.7913C238.857 19.79 238.779 20.9675 238.506 22.2038C238.484 22.3281 238.437 22.4467 238.368 22.5525C238.299 22.6583 238.209 22.749 238.105 22.8192C238 22.8895 237.881 22.9378 237.757 22.9612C237.633 22.9847 237.506 22.9829 237.382 22.9558C237.259 22.9288 237.142 22.8771 237.039 22.8038C236.937 22.7306 236.85 22.6373 236.784 22.5296C236.718 22.4219 236.674 22.302 236.656 22.177C236.637 22.0521 236.644 21.9247 236.676 21.8025C236.915 20.7125 236.955 19.795 236.835 19.115C236.715 18.4325 236.46 18.1063 236.215 17.965C236.01 17.8463 235.696 17.7875 235.219 17.9075C234.734 18.0288 234.144 18.32 233.485 18.805C232.17 19.7725 230.732 21.405 229.531 23.4875C229.006 24.392 228.557 25.3391 228.19 26.3188C228.103 26.5518 227.928 26.7409 227.702 26.8445C227.476 26.9481 227.218 26.9577 226.985 26.8713Z" fill="url(#paint2_linear_12_640)"/>
<path d="M233.825 25.0825C233.825 25.5334 233.646 25.9658 233.327 26.2846C233.008 26.6034 232.576 26.7825 232.125 26.7825C231.674 26.7825 231.242 26.6034 230.923 26.2846C230.604 25.9658 230.425 25.5334 230.425 25.0825C230.425 24.6316 230.604 24.1992 230.923 23.8804C231.242 23.5616 231.674 23.3825 232.125 23.3825C232.576 23.3825 233.008 23.5616 233.327 23.8804C233.646 24.1992 233.825 24.6316 233.825 25.0825Z" fill="url(#paint3_linear_12_640)"/>
</g>
<path d="M56 160.083C56.1105 160.083 56.2165 160.039 56.2947 159.961C56.3728 159.883 56.4167 159.777 56.4167 159.667V151.333H52.6667C52.2247 151.333 51.8008 151.158 51.4882 150.845C51.1756 150.533 51 150.109 51 149.667V145.917H46C45.8895 145.917 45.7836 145.961 45.7054 146.039C45.6273 146.117 45.5834 146.223 45.5834 146.333V155.189C45.2111 154.929 44.7829 154.76 44.3334 154.696V146.333C44.3334 145.891 44.509 145.467 44.8215 145.155C45.1341 144.842 45.558 144.667 46 144.667H51.1434C51.1667 144.667 51.1892 144.67 51.2117 144.673C51.228 144.675 51.2444 144.677 51.2609 144.678C51.44 144.691 51.6167 144.725 51.7809 144.793C51.8284 144.813 51.8742 144.84 51.9192 144.866L51.9609 144.89L52 144.91C52.0234 144.921 52.0459 144.933 52.0675 144.947C52.1325 144.991 52.1909 145.043 52.25 145.097C52.2597 145.105 52.2697 145.114 52.28 145.122C52.2944 145.132 52.308 145.143 52.3209 145.155L57.1784 150.012C57.491 150.324 57.6666 150.748 57.6667 151.19V159.667C57.6667 160.109 57.4911 160.533 57.1786 160.845C56.866 161.158 56.4421 161.333 56 161.333H54.5534C54.8641 160.981 55.0672 160.547 55.1384 160.083H56ZM55.4817 150.083L52.25 146.851V149.667C52.25 149.777 52.2939 149.883 52.3721 149.961C52.4502 150.039 52.5562 150.083 52.6667 150.083H55.4817ZM51.0434 160.083C51.2125 160.8 51.8567 161.333 52.625 161.333H52.7084C52.9218 161.333 53.1331 161.291 53.3302 161.21C53.5274 161.128 53.7065 161.008 53.8574 160.857C54.0083 160.707 54.128 160.527 54.2097 160.33C54.2913 160.133 54.3334 159.922 54.3334 159.708V159.513C54.3333 159.262 54.268 159.014 54.1438 158.795C54.0197 158.576 53.841 158.393 53.625 158.263L52.3509 157.498C52.3201 157.48 52.2947 157.454 52.277 157.422C52.2594 157.391 52.2501 157.356 52.25 157.32V157.125C52.25 157.026 52.2895 156.93 52.3599 156.86C52.4302 156.79 52.5256 156.75 52.625 156.75H52.7084C52.8078 156.75 52.9032 156.79 52.9735 156.86C53.0439 156.93 53.0834 157.026 53.0834 157.125V157.167C53.0834 157.332 53.1492 157.491 53.2664 157.609C53.3836 157.726 53.5426 157.792 53.7084 157.792C53.8741 157.792 54.0331 157.726 54.1503 157.609C54.2675 157.491 54.3334 157.332 54.3334 157.167V157.125C54.3334 156.694 54.1622 156.281 53.8574 155.976C53.5527 155.671 53.1394 155.5 52.7084 155.5H52.625C52.1941 155.5 51.7807 155.671 51.476 155.976C51.1712 156.281 51 156.694 51 157.125V157.32C51 157.832 51.2684 158.307 51.7084 158.57L52.9825 159.335C53.0133 159.354 53.0387 159.38 53.0564 159.411C53.0741 159.442 53.0834 159.477 53.0834 159.513V159.708C53.0834 159.808 53.0439 159.903 52.9735 159.974C52.9032 160.044 52.8078 160.083 52.7084 160.083H52.625C52.5256 160.083 52.4302 160.044 52.3599 159.974C52.2895 159.903 52.25 159.808 52.25 159.708V159.667C52.25 159.501 52.1842 159.342 52.067 159.225C51.9498 159.108 51.7908 159.042 51.625 159.042C51.4593 159.042 51.3003 159.108 51.1831 159.225C51.0659 159.342 51 159.501 51 159.667V159.708C51 159.838 51.015 159.963 51.0434 160.083ZM45.9584 161.333L46 161.292V161.333H45.9584ZM47.0392 160.5C46.9038 160.258 46.8329 159.986 46.8334 159.708V159.667C46.8334 159.501 46.8992 159.342 47.0164 159.225C47.1336 159.108 47.2926 159.042 47.4584 159.042C47.6241 159.042 47.7831 159.108 47.9003 159.225C48.0175 159.342 48.0834 159.501 48.0834 159.667V159.708C48.0834 159.915 48.2509 160.083 48.4584 160.083H48.5417C48.6412 160.083 48.7365 160.044 48.8069 159.974C48.8772 159.903 48.9167 159.808 48.9167 159.708V159.513C48.9167 159.477 48.9074 159.442 48.8897 159.411C48.8721 159.38 48.8466 159.354 48.8159 159.335L47.5409 158.57C47.3251 158.44 47.1465 158.257 47.0226 158.038C46.8986 157.819 46.8334 157.572 46.8334 157.32V157.125C46.8334 156.912 46.8754 156.7 46.9571 156.503C47.0387 156.306 47.1584 156.127 47.3093 155.976C47.4602 155.825 47.6394 155.705 47.8365 155.624C48.0337 155.542 48.245 155.5 48.4584 155.5H48.5417C48.9727 155.5 49.386 155.671 49.6908 155.976C49.9955 156.281 50.1667 156.694 50.1667 157.125V157.167C50.1667 157.332 50.1009 157.491 49.9836 157.609C49.8664 157.726 49.7075 157.792 49.5417 157.792C49.3759 157.792 49.217 157.726 49.0998 157.609C48.9826 157.491 48.9167 157.332 48.9167 157.167V157.125C48.9167 157.026 48.8772 156.93 48.8069 156.86C48.7365 156.79 48.6412 156.75 48.5417 156.75H48.4584C48.3589 156.75 48.2635 156.79 48.1932 156.86C48.1229 156.93 48.0834 157.026 48.0834 157.125V157.32C48.0834 157.356 48.0927 157.391 48.1104 157.422C48.128 157.454 48.1535 157.48 48.1842 157.498L49.4592 158.263C49.8984 158.527 50.1667 159.002 50.1667 159.513V159.708C50.1665 159.985 50.0956 160.258 49.9609 160.5C49.8199 160.753 49.6141 160.963 49.3646 161.11C49.1151 161.256 48.831 161.333 48.5417 161.333H48.4584C48.1691 161.333 47.885 161.256 47.6355 161.11C47.386 160.963 47.1802 160.753 47.0392 160.5ZM45.84 160.052C45.9434 159.805 46 159.534 46 159.25C46 159.084 45.9342 158.925 45.817 158.808C45.6998 158.691 45.5408 158.625 45.375 158.625C45.2093 158.625 45.0503 158.691 44.9331 158.808C44.8159 158.925 44.75 159.084 44.75 159.25C44.75 159.471 44.6622 159.683 44.506 159.839C44.3497 159.996 44.1377 160.083 43.9167 160.083C43.6957 160.083 43.4837 159.996 43.3275 159.839C43.1712 159.683 43.0834 159.471 43.0834 159.25V157.583C43.0834 157.362 43.1712 157.15 43.3275 156.994C43.4837 156.838 43.6957 156.75 43.9167 156.75C44.1377 156.75 44.3497 156.838 44.506 156.994C44.6622 157.15 44.75 157.362 44.75 157.583C44.75 157.749 44.8159 157.908 44.9331 158.025C45.0503 158.143 45.2093 158.208 45.375 158.208C45.5408 158.208 45.6998 158.143 45.817 158.025C45.9342 157.908 46 157.749 46 157.583C46 157.031 45.7805 156.501 45.3898 156.11C44.9991 155.72 44.4692 155.5 43.9167 155.5C43.3642 155.5 42.8343 155.72 42.4436 156.11C42.0529 156.501 41.8334 157.031 41.8334 157.583V159.25C41.8331 159.732 41.9999 160.199 42.3052 160.571C42.6105 160.944 43.0356 161.199 43.508 161.294C43.9804 161.388 44.4709 161.316 44.8961 161.09C45.3213 160.863 45.6549 160.496 45.84 160.052Z" fill="url(#paint4_linear_12_640)"/>
<path d="M15 70.075C11.0325 70.075 8.55375 72.0588 7.5625 76.025C9.05 74.0413 10.785 73.2975 12.7687 73.7938C13.9 74.0763 14.7087 74.8975 15.6037 75.8063C17.0637 77.2875 18.75 79 22.4375 79C26.4038 79 28.8825 77.0163 29.875 73.05C28.3875 75.0338 26.6513 75.7775 24.6688 75.2813C23.5363 74.9988 22.7288 74.1775 21.8312 73.2688C20.375 71.7875 18.6875 70.075 15 70.075ZM7.5625 79C3.595 79 1.11625 80.9838 0.125 84.95C1.6125 82.9663 3.3475 82.2225 5.33125 82.7188C6.4625 83.0013 7.27125 83.8225 8.1675 84.7313C9.625 86.2125 11.3125 87.925 15 87.925C18.9662 87.925 21.445 85.9413 22.4375 81.975C20.95 83.9588 19.2137 84.7025 17.2312 84.2063C16.0987 83.9238 15.2913 83.1025 14.3938 82.1938C12.9375 80.7125 11.25 79 7.5625 79Z" fill="url(#paint5_linear_12_640)"/>
<path d="M268.565 72.6458H248.435C248.232 72.6458 248.031 72.6882 247.845 72.7703C247.66 72.8524 247.493 72.9723 247.356 73.1224C247.22 73.2725 247.116 73.4495 247.052 73.642C246.987 73.8346 246.964 74.0384 246.983 74.2405L248.943 95.1428C248.967 95.3972 249.057 95.6409 249.204 95.8495C249.352 96.0581 249.552 96.2242 249.784 96.3313L257.889 100.072C258.081 100.16 258.289 100.206 258.5 100.206C258.711 100.206 258.919 100.16 259.111 100.072L267.216 96.3313C267.449 96.2243 267.648 96.0582 267.796 95.8496C267.944 95.641 268.034 95.3973 268.058 95.1428L270.017 74.2405C270.036 74.0384 270.013 73.8346 269.948 73.642C269.884 73.4495 269.78 73.2725 269.644 73.1224C269.507 72.9723 269.341 72.8524 269.155 72.7703C268.969 72.6882 268.768 72.6458 268.565 72.6458Z" stroke="url(#paint6_linear_12_640)" stroke-width="4"/>
<path d="M264.333 77.75H252.667L253.396 84.3125H263.604L262.875 92.3333L258.5 94.5208L254.125 92.3333L253.76 88.6875" stroke="url(#paint7_linear_12_640)" stroke-width="4" stroke-linecap="round" stroke-linejoin="round"/>
<path d="M207 147V144H204V147H202.5V139.5H204V142.5H207V139.5H208.5V147H207ZM211.5 147V141H209.4V139.5H214.95V141H213V147H211.5ZM216 147V139.5H217.5L219.6 144.6H219.75L222 139.5H223.5V147H222V142.35H221.85L220.2 146.1H219.3L217.65 142.35H217.5V147H216ZM229.5 147H225V139.5H226.5V145.5H229.5V147ZM215.1 129.3L211.65 132.75L215.1 136.2L214.2 138L208.95 132.75L214.2 127.5L215.1 129.3ZM216.9 136.2L220.35 132.75L216.9 129.3L217.8 127.5L223.05 132.75L217.8 138L216.9 136.2Z" fill="url(#paint8_linear_12_640)"/>
<g clip-path="url(#clip1_12_640)">
<path d="M37.9887 18.7502L35.0876 20.445L33.3612 18.7186L34.9297 15.7882C34.6253 15.2535 34.3864 14.684 34.2181 14.0921L31.0353 13.2275V10.7817L34.2011 9.85181C34.3636 9.26162 34.5961 8.68799 34.8993 8.14536L33.2892 5.26665L35.0157 3.54023L37.9175 5.17022C38.471 4.86553 39.0387 4.63716 39.6114 4.47964L40.5068 1.21436H42.9526L43.874 4.54814C44.4116 4.7129 44.9301 4.93453 45.4208 5.20928L48.4677 3.46831L50.1941 5.19478L48.4619 8.27061C48.9063 9.0875 49.209 10.0021 49.328 10.9913H46.2724C45.6574 7.94551 42.1403 6.21587 39.2885 7.85991C36.1522 9.66807 36.1522 14.213 39.2885 16.0212C40.558 16.753 41.4221 16.871 42.5418 16.3925V18.7353L40.3502 20.043C40.3502 20.043 38.564 19.0595 37.9886 18.7503M44.4943 21.2412C43.7085 21.5068 43.1004 21.3474 42.4682 20.2071L40.6735 21.3066C41.4009 23.1257 43.9811 23.9143 45.8676 22.8705C47.1337 22.0325 47.3282 21.1712 47.3006 18.4938V12.4104H45.0843V19.3844C45.1094 20.2106 45.0755 21.0447 44.4943 21.2411M54.5998 22.7812C55.6563 22.1857 56.2644 21.0324 55.9541 19.548C55.4544 16.7504 51.6795 16.7504 51.2319 15.607C50.7404 13.9565 53.0125 13.6956 53.6428 15.1651L55.3704 14.0565C54.134 11.6799 50.7723 11.9151 49.6497 13.3605C48.5329 14.6282 48.8512 16.8468 50.2108 17.76C51.5502 18.7652 53.5176 18.9937 53.7687 19.9341C54.0131 21.0849 52.9226 21.4566 51.8389 21.3247C51.0404 21.1588 50.5962 20.7531 50.1158 20.0148L48.3233 21.0487C49.5321 23.4612 52.7801 23.8068 54.5998 22.7811" fill="url(#paint9_linear_12_640)"/>
</g>
<path d="M70.5 31.25C70.5 27.9348 71.817 24.7554 74.1612 22.4112C76.5054 20.067 79.6848 18.75 83 18.75H183C186.315 18.75 189.495 20.067 191.839 22.4112C194.183 24.7554 195.5 27.9348 195.5 31.25V100C195.5 103.315 194.183 106.495 191.839 108.839C189.495 111.183 186.315 112.5 183 112.5H139.25V125H158C159.658 125 161.247 125.658 162.419 126.831C163.592 128.003 164.25 129.592 164.25 131.25C164.25 132.908 163.592 134.497 162.419 135.669C161.247 136.842 159.658 137.5 158 137.5H108C106.342 137.5 104.753 136.842 103.581 135.669C102.408 134.497 101.75 132.908 101.75 131.25C101.75 129.592 102.408 128.003 103.581 126.831C104.753 125.658 106.342 125 108 125H126.75V112.5H83C79.6848 112.5 76.5054 111.183 74.1612 108.839C71.817 106.495 70.5 103.315 70.5 100V31.25ZM183 100V31.25H83V100H183Z" fill="url(#paint10_linear_12_640)"/>
<path fill-rule="evenodd" clip-rule="evenodd" d="M140.704 44.57C140.843 44.1532 140.897 43.7127 140.863 43.2747C140.829 42.8366 140.707 42.4098 140.505 42.0197C140.302 41.6296 140.024 41.2841 139.685 41.0037C139.347 40.7234 138.956 40.5138 138.535 40.3875C138.114 40.2611 137.672 40.2206 137.235 40.2684C136.798 40.3161 136.376 40.4511 135.992 40.6653C135.608 40.8795 135.272 41.1687 135.002 41.5155C134.732 41.8623 134.535 42.2598 134.421 42.6844L121.296 86.4344C121.083 87.2565 121.196 88.1295 121.613 88.8698C122.029 89.61 122.717 90.1598 123.531 90.4035C124.344 90.6472 125.221 90.5658 125.976 90.1764C126.731 89.787 127.306 89.12 127.579 88.3156L140.704 44.5656V44.57ZM115.819 52.2438C116.433 52.859 116.778 53.693 116.778 54.5625C116.778 55.432 116.433 56.266 115.819 56.8813L107.2 65.5L115.819 74.1188C116.398 74.7408 116.714 75.5635 116.699 76.4136C116.684 77.2636 116.34 78.0747 115.738 78.6759C115.137 79.277 114.326 79.6214 113.476 79.6364C112.626 79.6514 111.803 79.3359 111.181 78.7563L100.244 67.8188C99.6293 67.2035 99.2842 66.3696 99.2842 65.5C99.2842 64.6305 99.6293 63.7965 100.244 63.1813L111.181 52.2438C111.797 51.6293 112.631 51.2842 113.5 51.2842C114.37 51.2842 115.204 51.6293 115.819 52.2438ZM146.181 78.7563C145.567 78.141 145.222 77.307 145.222 76.4375C145.222 75.568 145.567 74.734 146.181 74.1188L154.8 65.5L146.181 56.8813C145.602 56.2593 145.286 55.4365 145.301 54.5865C145.316 53.7364 145.661 52.9254 146.262 52.3242C146.863 51.723 147.674 51.3786 148.524 51.3636C149.374 51.3486 150.197 51.6642 150.819 52.2438L161.756 63.1813C162.371 63.7965 162.716 64.6305 162.716 65.5C162.716 66.3696 162.371 67.2035 161.756 67.8188L150.819 78.7563C150.204 79.3707 149.37 79.7159 148.5 79.7159C147.631 79.7159 146.797 79.3707 146.181 78.7563Z" fill="url(#paint11_linear_12_640)"/>
<defs>
<linearGradient id="paint0_linear_12_640" x1="225.447" y1="24.8585" x2="252.064" y2="24.8585" gradientUnits="userSpaceOnUse">
<stop stop-color="#F5A93D"/>
<stop offset="1" stop-color="#01D6BC"/>
</linearGradient>
<linearGradient id="paint1_linear_12_640" x1="221.91" y1="25.5625" x2="262.111" y2="25.5625" gradientUnits="userSpaceOnUse">
<stop stop-color="#F5A93D"/>
<stop offset="1" stop-color="#01D6BC"/>
</linearGradient>
<linearGradient id="paint2_linear_12_640" x1="225.474" y1="24.8602" x2="252.091" y2="24.8602" gradientUnits="userSpaceOnUse">
<stop stop-color="#F5A93D"/>
<stop offset="1" stop-color="#01D6BC"/>
</linearGradient>
<linearGradient id="paint3_linear_12_640" x1="230.41" y1="25.0558" x2="237.244" y2="25.0558" gradientUnits="userSpaceOnUse">
<stop stop-color="#F5A93D"/>
<stop offset="1" stop-color="#01D6BC"/>
</linearGradient>
<linearGradient id="paint4_linear_12_640" x1="41.7624" y1="152.87" x2="73.588" y2="152.87" gradientUnits="userSpaceOnUse">
<stop stop-color="#F5A93D"/>
<stop offset="1" stop-color="#01D6BC"/>
</linearGradient>
<linearGradient id="paint5_linear_12_640" x1="-0.00828262" y1="78.8597" x2="59.7903" y2="78.8597" gradientUnits="userSpaceOnUse">
<stop stop-color="#F5A93D"/>
<stop offset="1" stop-color="#01D6BC"/>
</linearGradient>
<linearGradient id="paint6_linear_12_640" x1="246.873" y1="86.2094" x2="293.199" y2="86.2094" gradientUnits="userSpaceOnUse">
<stop stop-color="#F5A93D"/>
<stop offset="1" stop-color="#01D6BC"/>
</linearGradient>
<linearGradient id="paint7_linear_12_640" x1="252.614" y1="86.0036" x2="276.065" y2="86.0036" gradientUnits="userSpaceOnUse">
<stop stop-color="#F5A93D"/>
<stop offset="1" stop-color="#01D6BC"/>
</linearGradient>
<linearGradient id="paint8_linear_12_640" x1="202.379" y1="137.097" x2="256.65" y2="137.097" gradientUnits="userSpaceOnUse">
<stop stop-color="#F5A93D"/>
<stop offset="1" stop-color="#01D6BC"/>
</linearGradient>
<linearGradient id="paint9_linear_12_640" x1="30.9233" y1="12.1018" x2="81.1739" y2="12.1018" gradientUnits="userSpaceOnUse">
<stop stop-color="#F5A93D"/>
<stop offset="1" stop-color="#01D6BC"/>
</linearGradient>
<linearGradient id="paint10_linear_12_640" x1="69.94" y1="77.1919" x2="321.194" y2="77.1919" gradientUnits="userSpaceOnUse">
<stop stop-color="#F5A93D"/>
<stop offset="1" stop-color="#01D6BC"/>
</linearGradient>
<linearGradient id="paint11_linear_12_640" x1="99" y1="65" x2="226.5" y2="65" gradientUnits="userSpaceOnUse">
<stop stop-color="#F5A93D"/>
<stop offset="1" stop-color="#01D6BC"/>
</linearGradient>
<clipPath id="clip0_12_640">
<rect width="20" height="20" fill="white" transform="translate(222 15)"/>
</clipPath>
<clipPath id="clip1_12_640">
<rect width="25" height="25" fill="white" transform="translate(31)"/>
</clipPath>
</defs>
</svg>
